<svg xmlns="http://www.w3.org/2000/svg" viewBox="0 0 400 400" fill="none">
  <rect width="400" height="400" fill="#F5EEE1"/>
  <!-- Fond cercle doux -->
  <circle cx="200" cy="200" r="170" fill="#FAF6ED" stroke="#E5DDC9" stroke-width="1"/>
  <!-- Silhouette personne -->
  <!-- Corps / veste -->
  <rect x="110" y="240" width="180" height="140" rx="20" fill="#031948"/>
  <!-- Col chemise blanc -->
  <rect x="178" y="238" width="44" height="30" rx="4" fill="white"/>
  <!-- Tête -->
  <circle cx="200" cy="170" r="62" fill="#D4A574"/>
  <!-- Cheveux -->
  <path d="M138,155 Q140,100 200,95 Q260,100 262,155 Q255,130 240,125 Q220,118 200,118 Q180,118 160,125 Q145,130 138,155Z" fill="#2C1810"/>
  <!-- Visage - sourire -->
  <path d="M180,185 Q200,200 220,185" stroke="#8B5C3E" stroke-width="2.5" fill="none" stroke-linecap="round"/>
  <!-- Yeux -->
  <ellipse cx="185" cy="170" rx="7" ry="8" fill="#2C1810"/>
  <ellipse cx="215" cy="170" rx="7" ry="8" fill="#2C1810"/>
  <circle cx="187" cy="168" r="2" fill="white"/>
  <circle cx="217" cy="168" r="2" fill="white"/>
  <!-- Badge HSE -->
  <rect x="248" y="265" width="70" height="28" rx="6" fill="#B8860B"/>
  <text x="283" y="282" text-anchor="middle" font-family="Inter, sans-serif" font-size="10" font-weight="700" fill="white">HSE Pro</text>
  <!-- Badge Morbihan -->
  <rect x="82" y="265" width="70" height="28" rx="6" fill="#031948"/>
  <text x="117" y="282" text-anchor="middle" font-family="Inter, sans-serif" font-size="10" font-weight="600" fill="#F5EEE1">Morbihan</text>
  <!-- Casque pompier (icône) en bas -->
  <text x="200" y="370" text-anchor="middle" font-family="Inter, sans-serif" font-size="28">🧑‍🚒</text>
</svg>
